<svg fill="none" height="14" viewBox="0 0 14 14" width="14" xmlns="http://www.w3.org/2000/svg">
    <path
        d="M12.439 5.631C12.476 5.275 12.499 4.915 12.499 4.551C12.499 3.835 12.409 3.131 12.3 2.445C12.2237 1.9845 11.9955 1.56279 11.6517 1.24708C11.3079 0.931367 10.8683 0.739831 10.403 0.703C9.143 0.604 7.837 0.5 6.5 0.5C5.163 0.5 3.857 0.603 2.597 0.702C2.13154 0.73888 1.69184 0.93056 1.34802 1.24647C1.0042 1.56238 0.776063 1.98432 0.7 2.445C0.591 3.131 0.5 3.835 0.5 4.552C0.5 5.269 0.591 5.972 0.7 6.658C0.776063 7.11868 1.0042 7.54062 1.34802 7.85653C1.69184 8.17244 2.13154 8.36412 2.597 8.401C3.491 8.471 4.407 8.543 5.343 8.579M3.062 3.277H3.821M6.121 3.277H6.88M9.18 3.277H9.938M3.315 5.827H8.413M12.827 10.47C12.827 10.4973 12.8353 10.5217 12.852 10.543L13.201 10.983C13.2641 11.0618 13.3019 11.1578 13.3094 11.2585C13.3169 11.3592 13.2938 11.4597 13.243 11.547L13.039 11.901C12.9888 11.9888 12.9132 12.0592 12.8222 12.1031C12.7311 12.1471 12.6289 12.1624 12.529 12.147L11.973 12.063C11.9468 12.0592 11.9201 12.0641 11.897 12.077L11.238 12.457C11.2151 12.4709 11.1975 12.492 11.188 12.517L10.983 13.039C10.9466 13.1333 10.8825 13.2143 10.7992 13.2715C10.7158 13.3286 10.6171 13.3591 10.516 13.359H10.107C10.0059 13.3591 9.90722 13.3286 9.82385 13.2715C9.74048 13.2143 9.67638 13.1333 9.64 13.039L9.435 12.516C9.4253 12.4914 9.40772 12.4706 9.385 12.457L8.726 12.077C8.7029 12.0641 8.67618 12.0592 8.65 12.063L8.095 12.147C7.99509 12.1624 7.89287 12.1471 7.80182 12.1031C7.71078 12.0592 7.63518 11.9888 7.585 11.901L7.38 11.547C7.32903 11.4596 7.30575 11.3589 7.31325 11.258C7.32075 11.1571 7.35867 11.0609 7.422 10.982L7.773 10.543C7.78914 10.5221 7.79793 10.4964 7.798 10.47V9.71C7.79793 9.68358 7.78914 9.65792 7.773 9.637L7.423 9.197C7.35973 9.11832 7.32176 9.02233 7.31408 8.92166C7.30641 8.82099 7.32939 8.72036 7.38 8.633L7.584 8.279C7.63418 8.19125 7.70978 8.12077 7.80082 8.07685C7.89187 8.03293 7.99409 8.01765 8.094 8.033L8.649 8.118C8.6753 8.12154 8.70202 8.11626 8.725 8.103L9.385 7.721C9.40772 7.70739 9.4253 7.68665 9.435 7.662L9.641 7.142C9.67738 7.04771 9.74148 6.96667 9.82485 6.90954C9.90822 6.85242 10.0069 6.82189 10.108 6.822H10.518C10.6191 6.82189 10.7178 6.85242 10.8012 6.90954C10.8845 6.96667 10.9486 7.04771 10.985 7.142L11.19 7.662C11.1993 7.68739 11.2169 7.70888 11.24 7.723L11.899 8.103C11.922 8.11626 11.9487 8.12154 11.975 8.118L12.53 8.033C12.6299 8.01765 12.7321 8.03293 12.8232 8.07685C12.9142 8.12077 12.9898 8.19125 13.04 8.279L13.245 8.633C13.296 8.72037 13.3192 8.82115 13.3117 8.92202C13.3042 9.0229 13.2663 9.11913 13.203 9.198L12.852 9.638C12.8361 9.65865 12.8273 9.68392 12.827 9.71V10.47Z"
        stroke="black" stroke-linecap="round" stroke-linejoin="round" />
    <path
        d="M10.3121 9.58611C10.1896 9.58313 10.0697 9.62192 9.97212 9.69611C9.77412 9.86111 9.76212 10.2371 9.92612 10.4301C9.97548 10.4823 10.0355 10.5233 10.1021 10.5502C10.1687 10.5771 10.2404 10.5894 10.3121 10.5861M10.3121 9.58611C10.4355 9.58296 10.5561 9.62213 10.6541 9.69711C10.8501 9.86111 10.8631 10.2371 10.6991 10.4301C10.6497 10.4825 10.5895 10.5235 10.5227 10.5504C10.4559 10.5773 10.3841 10.5895 10.3121 10.5861"
        stroke="black" stroke-linecap="round" stroke-linejoin="round" />
</svg>
