<svg fill="none" height="14" viewBox="0 0 14 14" width="14" xmlns="http://www.w3.org/2000/svg">
    <path
        d="M7.00008 5.24999V7.58332M7.00008 9.91666H7.00591M12.6759 10.5L8.00925 2.33332C7.90749 2.15377 7.75993 2.00443 7.58162 1.90053C7.40331 1.79663 7.20062 1.74188 6.99425 1.74188C6.78787 1.74188 6.58519 1.79663 6.40688 1.90053C6.22856 2.00443 6.081 2.15377 5.97925 2.33332L1.31258 10.5C1.20973 10.6781 1.1558 10.8803 1.15625 11.086C1.15671 11.2916 1.21153 11.4936 1.31517 11.6712C1.41881 11.8489 1.56758 11.996 1.7464 12.0976C1.92522 12.1993 2.12774 12.2518 2.33341 12.25H11.6667C11.8714 12.2498 12.0725 12.1957 12.2497 12.0932C12.4269 11.9908 12.574 11.8435 12.6762 11.6661C12.7785 11.4888 12.8323 11.2877 12.8322 11.083C12.8322 10.8783 12.7783 10.6773 12.6759 10.5Z"
        stroke="#D80027" stroke-linecap="round" stroke-linejoin="round" stroke-width="1.06061" />
</svg>
