<svg fill="none" height="17" viewBox="0 0 17 17" width="17" xmlns="http://www.w3.org/2000/svg">
    <path
        d="M9.91487 2.83398C10.1704 2.83398 10.4212 2.90311 10.6407 3.03404C10.8602 3.16498 11.0401 3.35284 11.1615 3.57773L11.5058 4.21523C11.6272 4.44012 11.8071 4.62799 12.0266 4.75893C12.2461 4.88986 12.4969 4.95899 12.7525 4.95898H14.167C14.5427 4.95898 14.903 5.10824 15.1687 5.37392C15.4344 5.63959 15.5837 5.99993 15.5837 6.37565V12.7507C15.5837 13.1264 15.4344 13.4867 15.1687 13.7524C14.903 14.0181 14.5427 14.1673 14.167 14.1673H2.83366C2.45794 14.1673 2.0976 14.0181 1.83192 13.7524C1.56625 13.4867 1.41699 13.1264 1.41699 12.7507V6.37565C1.41699 5.99993 1.56625 5.63959 1.83192 5.37392C2.0976 5.10824 2.45794 4.95898 2.83366 4.95898H4.2482C4.5035 4.959 4.75406 4.89002 4.97338 4.75935C5.1927 4.62868 5.37264 4.44117 5.49416 4.21665L5.84053 3.57632C5.96206 3.3518 6.14199 3.16429 6.36131 3.03362C6.58064 2.90295 6.83119 2.83397 7.08649 2.83398H9.91487Z"
        stroke="#1C75BC" stroke-linecap="round" stroke-linejoin="round" stroke-width="1.41667" />
    <path
        d="M8.50033 11.334C9.67393 11.334 10.6253 10.3826 10.6253 9.20898C10.6253 8.03538 9.67393 7.08398 8.50033 7.08398C7.32672 7.08398 6.37533 8.03538 6.37533 9.20898C6.37533 10.3826 7.32672 11.334 8.50033 11.334Z"
        stroke="#1C75BC" stroke-linecap="round" stroke-linejoin="round" stroke-width="1.41667" />
</svg>
