<svg width="16" height="17" viewBox="0 0 16 17" fill="none" xmlns="http://www.w3.org/2000/svg">
<path d="M14 3.83301C14 4.93758 11.3137 5.83301 8 5.83301C4.68629 5.83301 2 4.93758 2 3.83301M14 3.83301C14 2.72844 11.3137 1.83301 8 1.83301C4.68629 1.83301 2 2.72844 2 3.83301M14 3.83301V13.1663C14 13.6968 13.3679 14.2055 12.2426 14.5806C11.1174 14.9556 9.5913 15.1663 8 15.1663C6.4087 15.1663 4.88258 14.9556 3.75736 14.5806C2.63214 14.2055 2 13.6968 2 13.1663V3.83301M2 8.49967C2 9.03011 2.63214 9.53882 3.75736 9.91389C4.88258 10.289 6.4087 10.4997 8 10.4997C9.5913 10.4997 11.1174 10.289 12.2426 9.91389C13.3679 9.53882 14 9.03011 14 8.49967" stroke="#232E36" stroke-width="1.33333" stroke-linecap="round" stroke-linejoin="round"/>
</svg>
