<svg width="16" height="16" viewBox="0 0 16 16" fill="none" xmlns="http://www.w3.org/2000/svg">
<g clip-path="url(#clip0_1108_6331)">
<path d="M10.6663 5.33301V8.66635C10.6663 9.19678 10.8771 9.70549 11.2521 10.0806C11.6272 10.4556 12.1359 10.6663 12.6663 10.6663C13.1968 10.6663 13.7055 10.4556 14.0806 10.0806C14.4556 9.70549 14.6663 9.19678 14.6663 8.66635V7.99968C14.6663 6.49788 14.1593 5.04008 13.2273 3.86246C12.2953 2.68484 10.993 1.8564 9.53137 1.51135C8.06975 1.16631 6.53444 1.32488 5.17419 1.96138C3.81395 2.59788 2.70846 3.67501 2.03683 5.01826C1.36521 6.3615 1.1668 7.89217 1.47375 9.36227C1.7807 10.8324 2.57503 12.1558 3.72803 13.118C4.88104 14.0803 6.32518 14.6251 7.82647 14.6641C9.32776 14.7031 10.7982 14.2341 11.9997 13.333M10.6663 7.99968C10.6663 9.47244 9.47244 10.6663 7.99968 10.6663C6.52692 10.6663 5.33302 9.47244 5.33302 7.99968C5.33302 6.52692 6.52692 5.33301 7.99968 5.33301C9.47244 5.33301 10.6663 6.52692 10.6663 7.99968Z" stroke="#232E36" stroke-opacity="0.5" stroke-width="1.33333" stroke-linecap="round" stroke-linejoin="round"/>
</g>
<defs>
<clipPath id="clip0_1108_6331">
<rect width="16" height="16" fill="white"/>
</clipPath>
</defs>
</svg>
