<svg width="16" height="17" viewBox="0 0 16 17" fill="none" xmlns="http://www.w3.org/2000/svg">
<path d="M14.6668 8.50016C14.6668 12.1821 11.6821 15.1668 8.00016 15.1668M14.6668 8.50016C14.6668 4.81826 11.6821 1.8335 8.00016 1.8335M14.6668 8.50016H1.3335M8.00016 15.1668C4.31826 15.1668 1.3335 12.1821 1.3335 8.50016M8.00016 15.1668C6.28832 13.3694 5.3335 10.9823 5.3335 8.50016C5.3335 6.01799 6.28832 3.63093 8.00016 1.8335M8.00016 15.1668C9.71201 13.3694 10.6668 10.9823 10.6668 8.50016C10.6668 6.01799 9.71201 3.63093 8.00016 1.8335M1.3335 8.50016C1.3335 4.81826 4.31826 1.8335 8.00016 1.8335" stroke="#232E36" stroke-width="1.33333" stroke-linecap="round" stroke-linejoin="round"/>
</svg>
