<svg fill="none" height="20" viewBox="0 0 20 20" width="20" xmlns="http://www.w3.org/2000/svg">
    <path clip-rule="evenodd" d="M19.8002 10.2273C19.8002 9.51819 19.7366 8.83637 19.6184 8.18182H10.2002V12.05H15.582C15.3502 13.3 14.6457 14.3591 13.5866 15.0682V17.5773H16.8184C18.7093 15.8364 19.8002 13.2727 19.8002 10.2273Z"
        fill="#4285F4"
        fill-rule="evenodd" />
    <path clip-rule="evenodd" d="M10.2005 20C12.9005 20 15.1642 19.1045 16.8187 17.5772L13.5869 15.0681C12.6914 15.6681 11.546 16.0227 10.2005 16.0227C7.59598 16.0227 5.39143 14.2636 4.60507 11.9H1.26416V14.4909C2.90962 17.7591 6.29143 20 10.2005 20Z"
        fill="#34A853"
        fill-rule="evenodd" />
    <path clip-rule="evenodd" d="M4.60474 11.9C4.40474 11.3 4.29111 10.6591 4.29111 10C4.29111 9.34091 4.40474 8.7 4.60474 8.1V5.50909H1.26383C0.586559 6.85909 0.200195 8.38637 0.200195 10C0.200195 11.6136 0.586559 13.1409 1.26383 14.4909L4.60474 11.9Z"
        fill="#FBBC05"
        fill-rule="evenodd" />
    <path clip-rule="evenodd" d="M10.2005 3.97727C11.6687 3.97727 12.9869 4.48182 14.0233 5.47273L16.8914 2.60455C15.1596 0.99091 12.896 0 10.2005 0C6.29143 0 2.90962 2.24091 1.26416 5.50909L4.60507 8.1C5.39143 5.73637 7.59598 3.97727 10.2005 3.97727Z"
        fill="#EA4335"
        fill-rule="evenodd" />
</svg>
