<svg width="16" height="17" viewBox="0 0 16 17" fill="none" xmlns="http://www.w3.org/2000/svg">
<path d="M2 7.83301H4C4.35362 7.83301 4.69276 7.97348 4.94281 8.22353C5.19286 8.47358 5.33333 8.81272 5.33333 9.16634V11.1663C5.33333 11.52 5.19286 11.8591 4.94281 12.1091C4.69276 12.3592 4.35362 12.4997 4 12.4997H3.33333C2.97971 12.4997 2.64057 12.3592 2.39052 12.1091C2.14048 11.8591 2 11.52 2 11.1663V7.83301ZM2 7.83301C2 7.04508 2.15519 6.26486 2.45672 5.53691C2.75825 4.80895 3.20021 4.14752 3.75736 3.59037C4.31451 3.03322 4.97595 2.59126 5.7039 2.28973C6.43185 1.9882 7.21207 1.83301 8 1.83301C8.78793 1.83301 9.56815 1.9882 10.2961 2.28973C11.0241 2.59126 11.6855 3.03322 12.2426 3.59037C12.7998 4.14752 13.2417 4.80895 13.5433 5.53691C13.8448 6.26486 14 7.04508 14 7.83301M14 7.83301V11.1663M14 7.83301H12C11.6464 7.83301 11.3072 7.97348 11.0572 8.22353C10.8071 8.47358 10.6667 8.81272 10.6667 9.16634V11.1663C10.6667 11.52 10.8071 11.8591 11.0572 12.1091C11.3072 12.3592 11.6464 12.4997 12 12.4997H12.6667C13.0203 12.4997 13.3594 12.3592 13.6095 12.1091C13.8595 11.8591 14 11.52 14 11.1663M14 11.1663V12.4997C14 13.2069 13.719 13.8852 13.219 14.3853C12.7189 14.8854 12.0406 15.1663 11.3333 15.1663H8" stroke="#232E36" stroke-width="1.33333" stroke-linecap="round" stroke-linejoin="round"/>
</svg>
