<svg fill="none" height="21" viewBox="0 0 24 21" width="24" xmlns="http://www.w3.org/2000/svg">
    <path clip-rule="evenodd" d="M8.57941 2.58939C7.0828 1.92427 5.20268 2.26527 4.07689 3.71628L3.72667 4.16768C2.222 6.10702 2.43926 8.87258 4.22829 10.5532L11.9999 17.8538L19.7715 10.5532C21.5606 8.87258 21.7779 6.10701 20.2732 4.16768L19.923 3.71628C18.5882 1.99599 16.4214 2.48672 14.8603 3.71628L13.4279 2.16688C15.9146 0.208376 19.5593 -0.446253 21.7119 2.32829L22.0622 2.77969C24.2827 5.64177 23.9621 9.72325 21.3219 12.2035L13.4506 19.5976C13.4432 19.6047 13.4356 19.6118 13.4279 19.619C13.313 19.7271 13.1744 19.8574 13.0413 19.9599C12.8841 20.081 12.6482 20.2339 12.3269 20.2969C12.111 20.3393 11.8889 20.3393 11.6729 20.2969C11.3517 20.2339 11.1158 20.081 10.9586 19.9599C10.8255 19.8574 10.6869 19.7271 10.5719 19.6189C10.5642 19.6118 10.5567 19.6047 10.5492 19.5976L2.678 12.2035C0.0377626 9.72325 -0.282866 5.64178 1.93772 2.7797L2.28794 2.3283C4.50149 -0.524732 8.50047 -0.684554 10.9784 1.45897L11.7968 2.16688L11.1266 3.01642L9.95408 4.50264C9.56166 4.99999 9.34371 5.28052 9.21904 5.49405C9.21742 5.49684 9.21583 5.49957 9.21429 5.50224C9.21668 5.5042 9.21914 5.50619 9.22164 5.50822C9.41391 5.66368 9.71717 5.84871 10.2604 6.17465L11.6783 7.0254C11.6965 7.03627 11.7146 7.04725 11.7329 7.05812C12.1634 7.31636 12.5797 7.56599 12.8932 7.81766C13.2456 8.10058 13.6084 8.49286 13.7406 9.08111C13.8728 9.66936 13.713 10.1792 13.5156 10.5856C13.34 10.9473 13.0707 11.3511 12.7921 11.7689C12.7804 11.7864 12.7687 11.8041 12.7569 11.8218L11.8099 13.2424L9.92589 11.9864L10.8729 10.5658C11.2002 10.0747 11.3792 9.80182 11.4788 9.59668C11.4801 9.59408 11.4826 9.58887 11.4826 9.58887C11.4826 9.58887 11.4781 9.58525 11.4758 9.58344C11.298 9.44068 11.0194 9.27063 10.5133 8.96699L9.09544 8.1162C9.0763 8.10477 9.05717 8.09322 9.03807 8.08179C8.57384 7.8034 8.12919 7.53667 7.79798 7.26892C7.42811 6.96981 7.0453 6.55017 6.92998 5.92076C6.81467 5.29137 7.02382 4.76324 7.26364 4.35246C7.47838 3.98464 7.79961 3.57764 8.13498 3.15271C8.14877 3.13523 8.16259 3.11772 8.17642 3.10019L8.57941 2.58939Z"
        fill="#D80027"
        fill-rule="evenodd" />
</svg>
