<svg fill="none" height="43" viewBox="0 0 29 43" width="29" xmlns="http://www.w3.org/2000/svg">
    <path
        d="M12.0832 23.6666H12.0953M14.4998 28.5H14.5119M16.9165 23.6666H16.9286M19.3332 28.5H19.3453M21.7498 23.6666H21.7619M7.24984 23.6666H7.26192M8.45817 33.3333H20.5415M9.6665 28.5H9.67859M4.83317 18.8333H24.1665C25.5012 18.8333 26.5832 19.9153 26.5832 21.25V35.75C26.5832 37.0847 25.5012 38.1666 24.1665 38.1666H4.83317C3.49848 38.1666 2.4165 37.0847 2.4165 35.75V21.25C2.4165 19.9153 3.49848 18.8333 4.83317 18.8333Z"
        stroke="#1C75BC" stroke-linecap="round" stroke-linejoin="round" stroke-width="2.5" />
    <path d="M10 8.20837L14.5 2.70837M14.5 2.70837L19 8.20837M14.5 2.70837V13.7084" stroke="#1C75BC"
        stroke-linecap="round" stroke-linejoin="round" stroke-width="2.5" />
</svg>
