<svg width="16" height="16" viewBox="0 0 16 16" fill="none" xmlns="http://www.w3.org/2000/svg">
<path d="M13.3337 6.66634C13.3337 9.99501 9.64099 13.4617 8.40099 14.5323C8.28547 14.6192 8.14486 14.6662 8.00033 14.6662C7.85579 14.6662 7.71518 14.6192 7.59966 14.5323C6.35966 13.4617 2.66699 9.99501 2.66699 6.66634C2.66699 5.25185 3.2289 3.8953 4.22909 2.8951C5.22928 1.89491 6.58584 1.33301 8.00033 1.33301C9.41481 1.33301 10.7714 1.89491 11.7716 2.8951C12.7718 3.8953 13.3337 5.25185 13.3337 6.66634Z" stroke="#232E36" stroke-opacity="0.5" stroke-width="1.33333" stroke-linecap="round" stroke-linejoin="round"/>
<path d="M8.00033 8.66634C9.10489 8.66634 10.0003 7.77091 10.0003 6.66634C10.0003 5.56177 9.10489 4.66634 8.00033 4.66634C6.89576 4.66634 6.00033 5.56177 6.00033 6.66634C6.00033 7.77091 6.89576 8.66634 8.00033 8.66634Z" stroke="#232E36" stroke-opacity="0.5" stroke-width="1.33333" stroke-linecap="round" stroke-linejoin="round"/>
</svg>
