<svg width="16" height="17" viewBox="0 0 16 17" fill="none" xmlns="http://www.w3.org/2000/svg">
<path d="M13.9898 8.82394C13.9273 9.98137 13.5309 11.0959 12.8485 12.0329C12.1661 12.9698 11.2269 13.6891 10.1445 14.1036C9.06205 14.5182 7.8827 14.6104 6.749 14.369C5.61529 14.1276 4.57578 13.563 3.75612 12.7434C2.93646 11.9238 2.37174 10.8844 2.13022 9.75068C1.88871 8.617 1.98074 7.43764 2.3952 6.35515C2.80965 5.27266 3.52878 4.3334 4.46566 3.6509C5.40254 2.9684 6.51706 2.57188 7.67448 2.50927C7.94448 2.49461 8.08581 2.81594 7.94248 3.04461C7.46307 3.81164 7.25779 4.71852 7.36014 5.61724C7.46249 6.51596 7.86643 7.35346 8.50603 7.99306C9.14563 8.63266 9.98313 9.03659 10.8818 9.13894C11.7806 9.24129 12.6874 9.03601 13.4545 8.55661C13.6838 8.41327 14.0045 8.55394 13.9898 8.82394Z" stroke="#232E36" stroke-width="1.33333" stroke-linecap="round" stroke-linejoin="round"/>
</svg>
