<svg fill="none" height="16" viewBox="0 0 16 16" width="16" xmlns="http://www.w3.org/2000/svg">
    <path
        d="M9.38263 2.58997C9.87943 2.05173 10.1278 1.78261 10.3918 1.62563C11.0286 1.24685 11.8129 1.23507 12.4604 1.59455C12.7288 1.74354 12.9848 2.00509 13.4968 2.52818C14.0089 3.05127 14.265 3.31282 14.4108 3.58696C14.7627 4.24842 14.7512 5.04953 14.3804 5.70014C14.2267 5.96978 13.9632 6.22353 13.4364 6.73101L7.16723 12.7692C6.16875 13.7309 5.6695 14.2118 5.04554 14.4555C4.42158 14.6992 3.73563 14.6813 2.36374 14.6454L2.17708 14.6405C1.75944 14.6296 1.55061 14.6241 1.42922 14.4863C1.30783 14.3486 1.3244 14.1359 1.35755 13.7105L1.37555 13.4795C1.46884 12.282 1.51548 11.6833 1.7493 11.1451C1.98312 10.6069 2.38646 10.17 3.19312 9.29601L9.38263 2.58997Z"
        stroke="#1C75BC" stroke-linejoin="round" stroke-width="1.33333" />
    <path d="M8.6665 2.66699L13.3332 7.33366" stroke="#1C75BC" stroke-linejoin="round"
        stroke-width="1.33333" />
    <path d="M9.3335 14.667H14.6668" stroke="#1C75BC" stroke-linecap="round" stroke-linejoin="round"
        stroke-width="1.33333" />
</svg>
