<svg width="16" height="17" viewBox="0 0 16 17" fill="none" xmlns="http://www.w3.org/2000/svg">
<path d="M7.99984 5.8338V8.50046M7.99984 11.1671H8.0065M13.3332 9.16713C13.3332 12.5005 10.9998 14.1671 8.2265 15.1338C8.08128 15.183 7.92353 15.1807 7.77984 15.1271C4.99984 14.1671 2.6665 12.5005 2.6665 9.16713V4.50046C2.6665 4.32365 2.73674 4.15408 2.86177 4.02906C2.98679 3.90403 3.15636 3.8338 3.33317 3.8338C4.6665 3.8338 6.33317 3.0338 7.49317 2.02046C7.63441 1.89979 7.81407 1.8335 7.99984 1.8335C8.1856 1.8335 8.36527 1.89979 8.5065 2.02046C9.67317 3.04046 11.3332 3.8338 12.6665 3.8338C12.8433 3.8338 13.0129 3.90403 13.1379 4.02906C13.2629 4.15408 13.3332 4.32365 13.3332 4.50046V9.16713Z" stroke="#232E36" stroke-width="1.33333" stroke-linecap="round" stroke-linejoin="round"/>
</svg>
