<svg width="20" height="18" viewBox="0 0 20 18" fill="none" xmlns="http://www.w3.org/2000/svg">
<g clip-path="url(#clip0_955_4899)">
<path d="M18.9625 15.9558L14.5875 7.20577C14.5097 7.05003 14.39 6.91906 14.2419 6.82752C14.0938 6.73599 13.9231 6.6875 13.749 6.6875C13.5749 6.6875 13.4043 6.73599 13.2562 6.82752C13.1081 6.91906 12.9884 7.05003 12.9105 7.20577L11.3087 10.4094C10.2281 10.3147 9.18782 9.9539 8.28058 9.35932C9.38242 8.07722 10.072 6.49262 10.2592 4.8125H11.874C12.1227 4.8125 12.3611 4.71373 12.5369 4.53791C12.7128 4.3621 12.8115 4.12364 12.8115 3.875C12.8115 3.62636 12.7128 3.3879 12.5369 3.21209C12.3611 3.03627 12.1227 2.9375 11.874 2.9375H7.81152V2C7.81152 1.75136 7.71275 1.5129 7.53694 1.33709C7.36112 1.16127 7.12266 1.0625 6.87402 1.0625C6.62538 1.0625 6.38693 1.16127 6.21111 1.33709C6.0353 1.5129 5.93652 1.75136 5.93652 2V2.9375H1.87402C1.62538 2.9375 1.38693 3.03627 1.21111 3.21209C1.0353 3.3879 0.936523 3.62636 0.936523 3.875C0.936523 4.12364 1.0353 4.3621 1.21111 4.53791C1.38693 4.71373 1.62538 4.8125 1.87402 4.8125H8.36849C8.19222 6.03398 7.67374 7.18059 6.87303 8.11971C6.48297 7.66287 6.1578 7.15441 5.90673 6.60869C5.80284 6.38289 5.61354 6.20759 5.38044 6.12133C5.14734 6.03506 4.88952 6.04489 4.66366 6.14866C4.43781 6.25242 4.2624 6.44163 4.17601 6.67468C4.08961 6.90773 4.0993 7.16555 4.20293 7.39146C4.5307 8.10403 4.9567 8.76715 5.46851 9.36148C4.4016 10.0645 3.15171 10.4386 1.87402 10.4375C1.62538 10.4375 1.38693 10.5363 1.21111 10.7121C1.0353 10.8879 0.936523 11.1264 0.936523 11.375C0.936523 11.6236 1.0353 11.8621 1.21111 12.0379C1.38693 12.2137 1.62538 12.3125 1.87402 12.3125C3.67506 12.3144 5.42892 11.7369 6.87645 10.6652C7.92598 11.4369 9.13934 11.956 10.4222 12.1824L8.53551 15.9558C8.48039 16.0659 8.4475 16.1858 8.43873 16.3086C8.42996 16.4315 8.44547 16.5548 8.48439 16.6717C8.52331 16.7885 8.58486 16.8965 8.66554 16.9896C8.74622 17.0826 8.84444 17.1588 8.95459 17.2139C9.06473 17.269 9.18466 17.3018 9.3075 17.3105C9.43034 17.3192 9.55369 17.3037 9.67051 17.2647C9.78733 17.2257 9.89532 17.1641 9.98832 17.0834C10.0813 17.0027 10.1575 16.9044 10.2125 16.7942L11.2034 14.8125H16.2946L17.2855 16.7942C17.3405 16.9044 17.4167 17.0027 17.5097 17.0834C17.6027 17.1641 17.7107 17.2257 17.8275 17.2647C17.9444 17.3037 18.0677 17.3192 18.1906 17.3105C18.3134 17.3018 18.4333 17.269 18.5435 17.2139C18.6536 17.1588 18.7518 17.0826 18.8325 16.9896C18.9132 16.8965 18.9747 16.7885 19.0137 16.6717C19.0526 16.5548 19.0681 16.4315 19.0593 16.3086C19.0505 16.1858 19.0177 16.0659 18.9625 15.9558ZM12.1409 12.9375L13.749 9.72133L15.3571 12.9375H12.1409Z" fill="#1C75BC"/>
</g>
<defs>
<clipPath id="clip0_955_4899">
<rect width="20" height="17" fill="white" transform="translate(0 0.5)"/>
</clipPath>
</defs>
</svg>
