<svg fill="none" height="22" viewBox="0 0 24 22" width="24" xmlns="http://www.w3.org/2000/svg">
    <path
        d="M2.11133 1.14209C2.49475 0.759143 3.11674 0.758878 3.5 1.14209L5.65332 3.29541C5.65424 3.29496 5.65533 3.29488 5.65625 3.29443C5.66245 3.2914 5.6686 3.28769 5.6748 3.28467L7.66016 5.271C7.65267 5.27394 7.64517 5.27683 7.6377 5.27979L9.68359 7.32568C9.69207 7.32379 9.7005 7.3217 9.70898 7.31982L12.0811 9.69189C12.0706 9.69175 12.0602 9.692 12.0498 9.69189L21.8262 19.4683C22.2093 19.8515 22.2091 20.4735 21.8262 20.8569C21.4428 21.2403 20.8209 21.2402 20.4375 20.8569L15.9404 16.3599C15.9387 16.3611 15.9373 16.3635 15.9355 16.3647C15.3435 16.7791 14.528 16.6355 14.1133 16.0435C13.8764 15.7051 13.5621 15.4269 13.1973 15.2329C12.8327 15.039 12.4267 14.9344 12.0137 14.9272C11.6007 14.9201 11.1915 15.0109 10.8203 15.1919C10.4493 15.373 10.1265 15.6395 9.87793 15.9692C9.44282 16.5465 8.62132 16.6622 8.04395 16.2271C7.46682 15.7919 7.35211 14.9714 7.78711 14.394C8.28438 13.7342 8.93019 13.2006 9.67285 12.8384C10.3651 12.5008 11.1228 12.3223 11.8916 12.311L9.62988 10.0493C9.25254 10.167 8.88282 10.3115 8.52539 10.4858C7.41157 11.0291 6.44215 11.8282 5.69629 12.8179C5.26122 13.3953 4.43967 13.5108 3.8623 13.0757C3.28525 12.6406 3.17048 11.82 3.60547 11.2427C4.6 9.92292 5.89267 8.85675 7.37793 8.13232C7.45337 8.09553 7.52927 8.05982 7.60547 8.0249L5.78711 6.20654C4.54044 6.97489 3.44497 7.97101 2.55957 9.146C2.12453 9.72318 1.30392 9.83876 0.726562 9.40381C0.149299 8.96877 0.0339405 8.14816 0.46875 7.5708C1.42619 6.30024 2.58494 5.20086 3.89453 4.31396L2.11133 2.53076C1.72797 2.14736 1.72794 1.52547 2.11133 1.14209ZM11.9688 17.5454C12.6916 17.5456 13.2773 18.1311 13.2773 18.854C13.2773 19.5768 12.6916 20.1624 11.9688 20.1626C11.2458 20.1626 10.6592 19.577 10.6592 18.854C10.6592 18.131 11.2458 17.5454 11.9688 17.5454ZM13.2432 7.15088C14.514 7.30672 15.7488 7.69438 16.8848 8.29834C18.3439 9.07416 19.599 10.1848 20.5469 11.5386C20.9614 12.1307 20.8176 12.9471 20.2256 13.3618C20.0558 13.4807 19.8667 13.5529 19.6748 13.5825L13.2432 7.15088ZM12.2197 1.83936C14.4916 1.879 16.7222 2.45519 18.7285 3.52197C20.7348 4.58876 22.4603 6.11567 23.7637 7.97705C24.1781 8.56923 24.0344 9.38559 23.4424 9.80029C22.8503 10.2149 22.0338 10.0709 21.6191 9.479C20.5527 7.95608 19.1406 6.70633 17.499 5.8335C15.8576 4.96079 14.0325 4.48899 12.1738 4.45654C11.6546 4.4475 11.1369 4.47282 10.624 4.53174L8.38281 2.29053C9.6314 1.96947 10.9219 1.8167 12.2197 1.83936Z"
        fill="#D80027" />
</svg>
